<?xml version="1.0" encoding="utf-8"?>
<!-- Generator: Adobe Illustrator 21.0.2, SVG Export Plug-In . SVG Version: 6.00 Build 0)  -->
<svg version="1.1" id="Layer_1" xmlns="http://www.w3.org/2000/svg" xmlns:xlink="http://www.w3.org/1999/xlink" x="0px" y="0px"
	 viewBox="0 0 8385 6175.2" style="enable-background:new 0 0 8385 6175.2;" xml:space="preserve">
<style type="text/css">
	.st0{fill:#FFFFFF;}
	.st1{font-family:'MyriadPro-Regular';}
	.st2{font-size:233.6151px;}
	.st3{font-size:69.3926px;glyph-orientation-vertical:0;writing-mode:tb;}
	.st4{fill:none;stroke:#000000;stroke-width:16;stroke-miterlimit:10;}
	.st5{fill:none;stroke:#000000;stroke-width:31;stroke-miterlimit:10;}
	.st6{font-size:945.7172px;}
	.st7{fill:none;stroke:#000000;stroke-width:24;stroke-miterlimit:10;}
</style>
<g id="Background">
	<rect x="0.5" y="0.5" class="st0" width="8372" height="6101"/>
	<path d="M8372,1v6100H1V1H8372 M8373,0H0v6102h8373V0L8373,0z"/>
</g>
<text transform="matrix(1.2 0 0 2.11 44.1597 6051.9717)" class="st1 st2">House</text>
<text transform="matrix(1 0 0 1 960.293 5790)" class="st1 st3">Jack</text>
<line id="Beanstalk" class="st4" x1="1764" y1="6102" x2="1764" y2="419"/>
<g>
	<path d="M5595.4,5477.8c-1-18.8-2.2-41.4-2-58.2h-0.6c-4.6,15.8-10.2,32.6-17,51.2l-23.8,65.4h-13.2L5517,5472
		c-6.4-19-11.8-36.4-15.6-52.4h-0.4c-0.4,16.8-1.4,39.4-2.6,59.6l-3.6,57.8h-16.6l9.4-134.8h22.2l23,65.2
		c5.6,16.6,10.2,31.4,13.6,45.4h0.6c3.4-13.6,8.2-28.4,14.2-45.4l24-65.2h22.2l8.4,134.8h-17L5595.4,5477.8z"/>
	<path d="M5696.8,5537l-1.4-12.2h-0.6c-5.4,7.6-15.8,14.4-29.6,14.4c-19.6,0-29.6-13.8-29.6-27.8c0-23.4,20.8-36.2,58.2-36v-2
		c0-8-2.2-22.4-22-22.4c-9,0-18.4,2.8-25.2,7.2l-4-11.6c8-5.2,19.6-8.6,31.8-8.6c29.6,0,36.8,20.2,36.8,39.6v36.2
		c0,8.4,0.4,16.6,1.6,23.2H5696.8z M5694.2,5487.6c-19.2-0.4-41,3-41,21.8c0,11.4,7.6,16.8,16.6,16.8c12.6,0,20.6-8,23.4-16.2
		c0.6-1.8,1-3.8,1-5.6V5487.6z"/>
	<path d="M5739.6,5470.4c0-11.4-0.2-21.2-0.8-30.2h15.4l0.6,19h0.8c4.4-13,15-21.2,26.8-21.2c2,0,3.4,0.2,5,0.6v16.6
		c-1.8-0.4-3.6-0.6-6-0.6c-12.4,0-21.2,9.4-23.6,22.6c-0.4,2.4-0.8,5.2-0.8,8.2v51.6h-17.4V5470.4z"/>
	<path d="M5823.2,5484.6h0.4c2.4-3.4,5.8-7.6,8.6-11l28.4-33.4h21.2l-37.4,39.8l42.6,57h-21.4l-33.4-46.4l-9,10v36.4h-17.4v-142
		h17.4V5484.6z"/>
	<path d="M5909.4,5491.8c0.4,23.8,15.6,33.6,33.2,33.6c12.6,0,20.2-2.2,26.8-5l3,12.6c-6.2,2.8-16.8,6-32.2,6
		c-29.8,0-47.6-19.6-47.6-48.8s17.2-52.2,45.4-52.2c31.6,0,40,27.8,40,45.6c0,3.6-0.4,6.4-0.6,8.2H5909.4z M5961,5479.2
		c0.2-11.2-4.6-28.6-24.4-28.6c-17.8,0-25.6,16.4-27,28.6H5961z"/>
	<path d="M6021,5412.4v27.8h25.2v13.4H6021v52.2c0,12,3.4,18.8,13.2,18.8c4.6,0,8-0.6,10.2-1.2l0.8,13.2c-3.4,1.4-8.8,2.4-15.6,2.4
		c-8.2,0-14.8-2.6-19-7.4c-5-5.2-6.8-13.8-6.8-25.2v-52.8h-15v-13.4h15V5417L6021,5412.4z"/>
</g>
<g id="Cloud">
	<line class="st5" x1="0" y1="1615" x2="8373" y2="1615"/>
	<path d="M4046.7,1609.8c-6.4,3.8-19.2,7.6-35.6,7.6c-38,0-66.6-28.5-66.6-81c0-50.1,28.6-84.1,70.4-84.1c16.8,0,27.4,4.3,32,7.1
		l-4.2,16.9c-6.6-3.8-16-6.7-27.2-6.7c-31.6,0-52.6,24-52.6,66c0,39.2,19,64.4,51.8,64.4c10.6,0,21.4-2.6,28.4-6.6L4046.7,1609.8z"
		/>
	<path d="M4067.8,1446.4h17.6V1615h-17.6V1446.4z"/>
	<path d="M4202.7,1556.6c0,42.5-24.8,61-48.2,61c-26.2,0-46.4-22.8-46.4-59.1c0-38.5,21.2-61,48-61
		C4183.9,1497.4,4202.7,1521.4,4202.7,1556.6z M4125.9,1557.8c0,25.2,12.2,44.2,29.4,44.2c16.8,0,29.4-18.8,29.4-44.7
		c0-19.5-8.2-44.2-29-44.2S4125.9,1535.9,4125.9,1557.8z"/>
	<path d="M4305.9,1583.6c0,11.9,0.2,22.3,0.8,31.4h-15.6l-1-18.8h-0.4c-4.6,9.3-14.8,21.4-32,21.4c-15.2,0-33.4-10-33.4-50.4V1500
		h17.6v63.7c0,21.9,5.6,36.6,21.6,36.6c11.8,0,20-9.7,23.2-19c1-3.1,1.6-6.9,1.6-10.7V1500h17.6V1583.6z"/>
	<path d="M4418.6,1446.4v138.9c0,10.2,0.2,21.9,0.8,29.7h-15.8l-0.8-20h-0.4c-5.4,12.8-17.2,22.6-33,22.6
		c-23.4,0-41.4-23.5-41.4-58.4c-0.2-38.2,19.8-61.8,43.4-61.8c14.8,0,24.8,8.3,29.2,17.6h0.4v-68.6H4418.6z M4401,1546.8
		c0-2.6-0.2-6.2-0.8-8.8c-2.6-13.3-12.2-24.2-25.4-24.2c-18.2,0-29,19-29,44.4c0,23.3,9.6,42.5,28.6,42.5c11.8,0,22.6-9.3,25.8-24.9
		c0.6-2.9,0.8-5.7,0.8-9V1546.8z"/>
</g>
<text transform="matrix(1 0 0 1 5613.9004 1626.5708)" class="st1 st6">Castle</text>
<rect x="2873" y="5339" class="st7" width="5500" height="763"/>
</svg>
